<svg width="640" height="520" viewBox="0 0 640 520" fill="none" xmlns="http://www.w3.org/2000/svg">
  <rect width="640" height="520" rx="36" fill="#F8F2E8"/>
  <rect x="68" y="70" width="504" height="380" rx="28" fill="#FCF8F1" stroke="#E4D8C4" stroke-width="2"/>
  <path d="M130 356C173 310 210 277 258 270C307 263 345 290 376 325" stroke="#4B7890" stroke-width="14" stroke-linecap="round"/>
  <path d="M390 274C405 250 426 235 452 235C476 235 496 247 510 268" stroke="#2F5D4F" stroke-width="12" stroke-linecap="round"/>
  <path d="M112 252C138 220 166 204 196 204C221 204 242 214 258 232" stroke="#8FA8B5" stroke-width="10" stroke-linecap="round"/>
  <path d="M120 172C145 148 173 136 204 136C226 136 247 145 266 163" stroke="#D4B17A" stroke-width="10" stroke-linecap="round"/>
  <path d="M188 330H312" stroke="#5F7F44" stroke-width="10" stroke-linecap="round"/>
  <path d="M188 354H278" stroke="#5F7F44" stroke-width="10" stroke-linecap="round"/>
  <path d="M420 182L468 132" stroke="#B67A24" stroke-width="8" stroke-linecap="round"/>
  <path d="M470 180L506 212" stroke="#B67A24" stroke-width="8" stroke-linecap="round"/>
  <path d="M470 180C478 160 488 148 502 140" stroke="#B67A24" stroke-width="8" stroke-linecap="round"/>
  <path d="M154 118C166 86 196 70 226 70C251 70 272 81 285 102" stroke="#4B7890" stroke-width="10" stroke-linecap="round"/>
  <path d="M420 324C435 290 463 272 493 272C511 272 528 279 540 291" stroke="#2F5D4F" stroke-width="14" stroke-linecap="round"/>
  <circle cx="483" cy="164" r="32" fill="#D4B17A"/>
  <path d="M142 116L165 90" stroke="#4B7890" stroke-width="8" stroke-linecap="round"/>
  <path d="M150 144L174 120" stroke="#4B7890" stroke-width="8" stroke-linecap="round"/>
</svg>
